<?xml version="1.0" encoding="UTF-8" standalone="no"?>
<svg
   xmlns:dc="http://purl.org/dc/elements/1.1/"
   xmlns:cc="http://creativecommons.org/ns#"
   xmlns:rdf="http://www.w3.org/1999/02/22-rdf-syntax-ns#"
   xmlns:svg="http://www.w3.org/2000/svg"
   xmlns="http://www.w3.org/2000/svg"
   xmlns:sodipodi="http://sodipodi.sourceforge.net/DTD/sodipodi-0.dtd"
   xmlns:inkscape="http://www.inkscape.org/namespaces/inkscape"
   height="332"
   width="332"
   fill="#000000"
   version="1.1"
   viewBox="0 0 15.545346 12.880494"
   overflow="visible"
   enable-background="new 0 0 14.047 11.639"
   xml:space="preserve"
   x="0px"
   y="0px"
   id="svg6"
   sodipodi:docname="icon2.svg"
   inkscape:version="1.0.2-2 (e86c870879, 2021-01-15)"
   inkscape:export-filename="C:\Users\Derek\Documents\Visual Studio 2019\Projects\ChiralScroll\ChiralScroll\resources\icon2.png"
   inkscape:export-xdpi="77.772148"
   inkscape:export-ydpi="77.772148"><metadata
     id="metadata12"><rdf:RDF><cc:Work
         rdf:about=""><dc:format>image/svg+xml</dc:format><dc:type
           rdf:resource="http://purl.org/dc/dcmitype/StillImage" /><dc:title></dc:title></cc:Work></rdf:RDF></metadata><defs
     id="defs10" /><sodipodi:namedview
     pagecolor="#ffffff"
     bordercolor="#666666"
     borderopacity="1"
     objecttolerance="10"
     gridtolerance="10"
     guidetolerance="10"
     inkscape:pageopacity="0"
     inkscape:pageshadow="2"
     inkscape:window-width="2560"
     inkscape:window-height="1373"
     id="namedview8"
     showgrid="false"
     inkscape:pagecheckerboard="true"
     inkscape:zoom="3.36"
     inkscape:cx="104.9739"
     inkscape:cy="149.65138"
     inkscape:window-x="-9"
     inkscape:window-y="-9"
     inkscape:window-maximized="1"
     inkscape:current-layer="svg6"
     fit-margin-top="0"
     fit-margin-left="0"
     fit-margin-right="0"
     fit-margin-bottom="0" /><g
     id="g4"
     style="stroke:#ffffff;stroke-width:1.49835;stroke-miterlimit:4;stroke-dasharray:none;stroke-opacity:1;paint-order:markers stroke fill"
     transform="translate(0.74850853,0.53917323)"><path
       fill="#000000"
       d="m 10.261,0.602 c 1.603,0.733 2.823,2.048 3.438,3.699 0.511,1.371 0.457,2.859 -0.151,4.19 -0.608,1.332 -1.699,2.347 -3.071,2.857 C 9.33,11.775 8.084,11.73 6.971,11.221 5.858,10.712 5.01,9.8 4.583,8.653 4.389,8.135 4.654,7.559 5.17,7.366 5.688,7.174 6.263,7.438 6.455,7.954 6.954,9.29 8.445,9.972 9.779,9.474 10.65,9.15 11.342,8.506 11.729,7.661 12.116,6.816 12.15,5.87 11.825,5 11.397,3.848 10.546,2.933 9.429,2.422 8.311,1.91 7.062,1.865 5.911,2.293 2.809,3.447 1.227,6.909 2.381,10.01 2.573,10.528 2.31,11.103 1.792,11.296 1.274,11.488 0.699,11.225 0.506,10.707 -0.239,8.706 -0.16,6.532 0.729,4.588 1.618,2.644 3.209,1.164 5.212,0.418 6.865,-0.197 8.658,-0.131 10.261,0.602 Z"
       id="path2"
       style="stroke:#ffffff;stroke-width:1.49835;stroke-miterlimit:4;stroke-dasharray:none;stroke-opacity:1;paint-order:markers stroke fill" /></g></svg>
